<svg xmlns="http://www.w3.org/2000/svg" width="1159.3" height="86.1"><g data-name="Layer 2"><g data-name="Laag 1"><path fill="#002b6c" d="M0 5.3h16.3l9.8 14.3 9.8-14.3h16.3L32.9 32.5v25.2H19.3V32.5L0 5.3zM104.8 30.5c0 16.9-12.2 28.9-29 28.9s-29-11.9-29-28.9c0-15.8 13.9-27 29-27s29 11.2 29 27m-43.8.1c0 9 6.7 15.6 14.8 15.6s14.8-6.6 14.8-15.6c0-7.2-6.7-13.8-14.8-13.8S61 23.4 61 30.6M154.9 5.3v29.5c0 6.7-.3 13.4-5.5 18.5-4.4 4.3-11.3 5.8-17.4 5.8s-13-1.5-17.4-5.8c-5.2-5.1-5.5-11.7-5.5-18.5V5.3h13.6v27.6c0 6.8.5 14.2 9.2 14.2s9.2-7.4 9.2-14.2V5.3zM205.6 57.7h-16.9l-12.9-20.1h-.1v20.1h-13.6V5.3h20.4c10.3 0 18.2 4.9 18.2 16.1 0 7.2-4 13.5-11.5 14.8zm-29.9-28.9h1.3c4.4 0 9.4-.8 9.4-6.5s-5-6.5-9.4-6.5h-1.3zM207.8 5.3h13.6v52.4h-13.6zM269 46.2v11.5h-44.9l24.8-40.8h-20.6V5.3h43.4L247 46.2h22z"/><path d="M328.1 30.5c0 16.9-12.2 28.9-29 28.9s-29-11.9-29-28.9c0-15.8 13.9-27 29-27s29 11.2 29 27m-43.8.1c0 9 6.7 15.6 14.8 15.6s14.8-6.6 14.8-15.6c0-7.2-6.7-13.8-14.8-13.8s-14.8 6.6-14.8 13.8" fill="#ffe904"/><path fill="#002b6c" d="M333 5.3h13.6l24.9 32h.2v-32h13.6v52.4h-13.6l-25-32.1h-.1v32.1H333V5.3zM275.3 66.7h47.6v11.5h-47.6z"/><g fill="#002b6c"><path d="M539.8 32.1c-.6 1.2-1.2 2.7-2 4.4s-1.7 3.4-2.7 5.3-2.2 3.6-3.4 5.4a38.68 38.68 0 01-3.9 4.8 22.12 22.12 0 01-4.3 3.4 8.94 8.94 0 01-4.6 1.3 6 6 0 01-4.4-1.7 11 11 0 01-2.4-4.2 22.78 22.78 0 01-1-5.2c-.1-1.8-.2-3.4-.2-4.7 0-3.7.1-7.4.3-11.2a50.31 50.31 0 011.9-11.4 23.92 23.92 0 011.1-3.2c.4-.8.7-1.6 1.1-2.4a3.92 3.92 0 011.3-1.5 1.93 1.93 0 011-.3h1.1a4.71 4.71 0 011.7.4 1.65 1.65 0 01.7 1.6 1.27 1.27 0 01-.1.6c0 .2-.1.4-.1.6a88.91 88.91 0 00-2.6 14 136.69 136.69 0 00-.8 14.2c0 .6 0 1.4.1 2.5a14.47 14.47 0 00.4 3 10 10 0 001 2.6 2.43 2.43 0 002 1.1 5.79 5.79 0 003.8-1.8 32.27 32.27 0 004.1-4.6 62.13 62.13 0 004-6.3c1.3-2.3 2.5-4.6 3.6-6.8s2-4.3 2.9-6.2 1.5-3.3 1.9-4.3a9.74 9.74 0 01.5-1.1c.2-.4.4-.9.6-1.4a7.84 7.84 0 00.5-1.4c.1-.4.2-.8.3-1.1a12 12 0 01.5-2.2 3.77 3.77 0 01.9-1.5 1.51 1.51 0 011.4-.7h1.2c.7 0 1.2.2 1.4.6a3.19 3.19 0 01.3 1.4v.3c-.3 3.4-.6 6.6-1 9.7-.2 1.5-.5 3.4-.8 5.7s-.8 4.8-1.3 7.5-1.1 5.5-1.8 8.5a79.56 79.56 0 01-2.5 8.7 71.79 71.79 0 01-3.2 8.1 36.93 36.93 0 01-4 6.8 19.22 19.22 0 01-4.9 4.6 11.24 11.24 0 01-5.9 1.7 10 10 0 01-3.8-.8 13.85 13.85 0 01-3.3-2 5.79 5.79 0 01-1.2-1.4 3.14 3.14 0 01-.7-1.6c0-.7.4-1 1.1-1a1.73 1.73 0 011.2.6c.5.4 1 .8 1.6 1.3a11.61 11.61 0 002.2 1.3 6.53 6.53 0 002.9.6 7.79 7.79 0 006.4-3.4 21.69 21.69 0 002.8-4.8 48.43 48.43 0 002.4-6.1 67.46 67.46 0 001.9-6.8c.6-2.4 1-4.7 1.4-7s.7-4.5 1-6.6c.2-2.4.3-4.3.4-5.9zM552.4 49.6a21 21 0 01.9-5.8 26.26 26.26 0 012.5-6 18.51 18.51 0 014.1-4.7 8.37 8.37 0 015.5-1.9 5.27 5.27 0 013.2.9 7.4 7.4 0 012 2.3 9.64 9.64 0 011 3 18.41 18.41 0 01.3 3.3 23.83 23.83 0 01-.4 4.6 25.42 25.42 0 01-1.3 4.5 19.79 19.79 0 01-2.3 4 14.84 14.84 0 01-3.4 3.2 15.76 15.76 0 01-2.6 1.3 9.18 9.18 0 01-2.8.5 5.71 5.71 0 01-3.2-.9 6 6 0 01-2-2.2 9.77 9.77 0 01-1.1-3 11 11 0 01-.4-3.1zm12.9-13.8a4.4 4.4 0 00-3.4 1.6 14.74 14.74 0 00-2.5 3.8 19 19 0 00-1.5 4.6 23 23 0 00-.5 3.9 10.87 10.87 0 00.1 1.8 7.76 7.76 0 00.5 1.8 3.81 3.81 0 001.1 1.4 2.52 2.52 0 001.7.6 3.29 3.29 0 001.7-.4l1.5-.9a11 11 0 002.3-2.5 14 14 0 001.5-3 20.25 20.25 0 00.9-3.3 18.41 18.41 0 00.3-3.3 12.75 12.75 0 00-.1-1.9 6.64 6.64 0 00-.6-2 4.57 4.57 0 00-1.1-1.6 3.29 3.29 0 00-1.9-.6zM577.4 48.5a35.2 35.2 0 01.5-6.4 41.34 41.34 0 011.4-6.3 5.24 5.24 0 011.8-2.5 5 5 0 012.9-.9c1.1 0 1.6.5 1.6 1.5a3.59 3.59 0 01-.2 1.1c-.1.4-.2.8-.3 1.1a34.39 34.39 0 00-1.1 3.8c-.4 1.4-.7 2.8-1 4.3s-.6 2.9-.8 4.3a27.69 27.69 0 00-.3 3.9 12.77 12.77 0 00.2 1.7 1 1 0 001.1 1 4.73 4.73 0 002.6-1.1 18.6 18.6 0 002.9-2.8 29.15 29.15 0 002.9-3.8c1-1.4 1.9-2.8 2.7-4.1s1.6-2.6 2.2-3.8 1.1-2.1 1.4-2.8c.2-.4.4-.9.6-1.4a10.09 10.09 0 01.7-1.5 5.24 5.24 0 011-1.1 2.46 2.46 0 011.5-.5 3.59 3.59 0 011.1.2 1 1 0 01.5 1 6.75 6.75 0 01-.2 1.4c-.2.4-.3.9-.5 1.3-.4 1-.7 2.2-1.1 3.5l-.9 3.9a27.61 27.61 0 00-.6 4c-.1 1.3-.2 2.5-.2 3.6a6.64 6.64 0 00.1 1.3 4.15 4.15 0 00.3 1.6 3.51 3.51 0 00.6 1.4 1.25 1.25 0 001.1.6 4.46 4.46 0 002.6-1.4 33.72 33.72 0 003.2-3.3c1.1-1.3 2-2.5 2.9-3.8s1.6-2.2 2-2.9a4.7 4.7 0 01.9-1.2 1.55 1.55 0 011.1-.7c.4 0 .7.1.8.4a2.92 2.92 0 01.2.9 1.85 1.85 0 01-.2.7 4.88 4.88 0 01-.3.7 46.12 46.12 0 01-2.5 4c-1.1 1.5-2.4 3-3.7 4.5a29.17 29.17 0 01-4.3 3.7 7.69 7.69 0 01-4.2 1.5 3.1 3.1 0 01-2.5-1.1 7.22 7.22 0 01-1.4-2.6 16.47 16.47 0 01-.6-3.2c-.1-1.1-.1-2.1-.1-2.8v-1.3a5.7 5.7 0 01.1-1.3c-.7 1-1.5 2.1-2.5 3.4a38 38 0 01-3.3 3.7 20.17 20.17 0 01-3.8 2.9 7.39 7.39 0 01-3.9 1.2 4 4 0 01-2.9-1 5.79 5.79 0 01-1.5-2.5 16.47 16.47 0 01-.6-3.2 26.08 26.08 0 000-2.8z"/><path d="M622.4 42.7a3.29 3.29 0 00-1.3-2.8 8.48 8.48 0 00-2.8-1.5c-.4 1-.8 2.1-1.2 3.2a24.08 24.08 0 01-1.5 3.3c-.6 1.1-1.2 2.2-1.8 3.2a19.36 19.36 0 01-2.1 2.7 5.72 5.72 0 01-.8.7 1.93 1.93 0 01-1 .3.8.8 0 01-.9-.9 2.35 2.35 0 01.2-.8 1.79 1.79 0 01.5-.7c1.3-1.9 2.6-3.9 3.8-6a16.64 16.64 0 002.2-6.6 8.67 8.67 0 01-1.4-2.7 10.55 10.55 0 01-.4-3.1 18.32 18.32 0 01.2-2.1 12.94 12.94 0 01.8-2.6 7.43 7.43 0 011.3-2.1 2.27 2.27 0 011.8-.9 1.31 1.31 0 011.2.7 5.23 5.23 0 01.7 1.5 5.66 5.66 0 01.3 1.8c0 .6.1 1.1.1 1.5 0 1.1-.1 2.2-.2 3.3a7 7 0 002.2 2c.9.5 1.8 1.1 2.7 1.7a8.39 8.39 0 012.3 2.3 6.4 6.4 0 011 3.6 13.9 13.9 0 01-.3 2.7c-.4 1.6-.7 3.2-1 4.9a27 27 0 00-.4 4.9 10 10 0 00.2 1.6 1 1 0 001.1.9 4.53 4.53 0 002.7-1.2 26.13 26.13 0 003.1-2.8 28.78 28.78 0 002.8-3.3c.8-1.2 1.5-2 2-2.7a7 7 0 01.8-1 1.39 1.39 0 011-.5.79.79 0 01.8.5 3 3 0 01.2 1 2.35 2.35 0 01-.2.8 2.51 2.51 0 01-.4.7 36 36 0 01-2.5 3.3c-1.1 1.3-2.3 2.6-3.5 3.9a36.59 36.59 0 01-3.9 3.2 6.9 6.9 0 01-3.7 1.3 3.39 3.39 0 01-2.7-1.1 9.34 9.34 0 01-1.5-2.6 15.16 15.16 0 01-.6-3.2c-.1-1.2-.1-2.1-.1-2.9 0-1.3.1-2.6.2-3.8s0-2.3 0-3.6zM672.7 48.1c-.6.7-1.5 1.5-2.5 2.6a31.09 31.09 0 01-3.3 2.9 23.35 23.35 0 01-3.5 2.3 7.73 7.73 0 01-3.3 1 2.64 2.64 0 01-1.9-.7 5.5 5.5 0 01-1.3-1.7 8.64 8.64 0 01-.7-2.1 7.14 7.14 0 01-.2-2 18.27 18.27 0 011-5.9 23.46 23.46 0 012.7-5.5 16.41 16.41 0 014.1-4.2 8.79 8.79 0 015.1-1.6 4.31 4.31 0 013.5 1.6 33.44 33.44 0 01.5-5.9 61.1 61.1 0 011.3-7c.6-2.4 1.2-4.8 2-7.2a42.58 42.58 0 012.6-6.4 21.71 21.71 0 013.2-4.6 5.07 5.07 0 013.7-1.7 2.79 2.79 0 012 .8 6.66 6.66 0 011.2 2 10.15 10.15 0 01.6 2.5 18.55 18.55 0 01.1 2.2 33.85 33.85 0 01-1.2 8.3c-.8 3.1-1.8 6.3-2.9 9.5s-2.4 6.3-3.8 9.3-2.6 5.6-3.7 7.8c0 .5 0 1.4.1 2.5s.2 2.4.3 3.6a13.47 13.47 0 00.9 3.2 2 2 0 001.7 1.4 6.38 6.38 0 004.4-1.8 28.56 28.56 0 003.6-4.1c1.1-1.5 2-2.8 2.8-4.1s1.4-1.8 1.9-1.8c.8 0 1.2.4 1.2 1.1a3.68 3.68 0 01-.5 1.6c-.3.6-.6 1-.9 1.5-.8 1.2-1.7 2.4-2.6 3.7a27.44 27.44 0 01-3.2 3.6 20 20 0 01-3.7 2.8 8.77 8.77 0 01-4.2 1.1 4.43 4.43 0 01-3-1.1 9.51 9.51 0 01-2-2.8 14 14 0 01-1.3-3.4 19.32 19.32 0 01-.8-3.3zm-.5-10.3a8.12 8.12 0 00-4.6 1.5 15.22 15.22 0 00-3.9 3.7 18.85 18.85 0 00-2.8 4.7 12.43 12.43 0 00-1 4.7 3.44 3.44 0 00.1.9.56.56 0 00.6.5 5.9 5.9 0 002.9-1.2 30.51 30.51 0 003.6-2.9q1.8-1.65 3.3-3.3a13.89 13.89 0 002-2.6c-.1-1-.1-2-.1-3s-.1-2-.1-3zm5.2.8c.9-1.9 1.9-4.2 3-6.8s2-5.2 2.9-8 1.6-5.4 2.3-8.1a33.63 33.63 0 00.9-7.2v-.4a1.7 1.7 0 00-.1-.7 1.42 1.42 0 00-.2-.6c-.1-.2-.2-.2-.4-.2-.6 0-1.3.6-2 1.9a25.2 25.2 0 00-1.9 4.8c-.6 2-1.2 4.1-1.7 6.5s-1 4.8-1.4 7.1-.7 4.5-1 6.4-.3 3.5-.3 4.5v.8z"/><path d="M723 46.2a2.92 2.92 0 01-.6 1.5 15.14 15.14 0 00-.9 1.4 26.12 26.12 0 01-2.4 3 30.84 30.84 0 01-3 3.3 17.66 17.66 0 01-3.5 2.6 7 7 0 01-3.6 1 3.16 3.16 0 01-2.7-1.2 7.3 7.3 0 01-1.5-2.9 21.69 21.69 0 01-.7-3.5c-.1-1.2-.2-2.2-.2-3-.5.7-1.1 1.6-1.8 2.6a31.51 31.51 0 01-2.4 3 20.51 20.51 0 01-2.7 2.5 4.58 4.58 0 01-2.8 1 3.23 3.23 0 01-2.1-.8 4.31 4.31 0 01-1.3-1.9 8.44 8.44 0 01-.6-2.4 19.88 19.88 0 01-.2-2.2 17.23 17.23 0 011.3-6.2 27.22 27.22 0 013.5-6.5 22.56 22.56 0 015-5.2 9.68 9.68 0 015.9-2.1 2.08 2.08 0 011.5.7 2.06 2.06 0 01.8 1.5.76.76 0 01-.2.5 2.19 2.19 0 01-.5.3c-1.2.7-2.4 1.5-3.6 2.3a20.71 20.71 0 00-3.2 2.8 22.22 22.22 0 00-4.3 6.2 16.69 16.69 0 00-1.6 7.4 3.75 3.75 0 00.1 1 .7.7 0 00.8.6 2.59 2.59 0 001.7-.9 18 18 0 002-2.4 19.48 19.48 0 002-3.2c.7-1.2 1.3-2.3 1.9-3.4s1.1-2.1 1.6-3.1.8-1.6 1-2.1a4.19 4.19 0 01.9-1.4 1.81 1.81 0 011.5-.7 4.25 4.25 0 011.1.2c.3.1.5.4.5.9a6.42 6.42 0 01-.5 2c-.3.8-.6 1.5-.8 2a23.28 23.28 0 00-.8 3.8 25.5 25.5 0 00-.2 3.8v1.7a19.53 19.53 0 00.2 2.3 5.91 5.91 0 00.7 2 1.38 1.38 0 001.3.9 5 5 0 002.7-1.1 17.47 17.47 0 002.9-2.6 37.36 37.36 0 002.7-3.1c.8-1.1 1.5-1.9 1.9-2.5a3.49 3.49 0 01.6-.9l.6-.6a1 1 0 01.7-.2c1 0 1.3.5 1.3 1.3z"/><path d="M726 49.2v1.7a7.61 7.61 0 00.3 2.1 7.51 7.51 0 00.7 1.8 1.6 1.6 0 001.4.8 4.85 4.85 0 003-1.3 23.25 23.25 0 003.2-3.1c1-1.2 2-2.4 2.9-3.7s1.6-2.3 2.1-3.2c.2-.3.5-.6.8-1a1.39 1.39 0 011-.5c.5 0 .7.2.8.5a3.4 3.4 0 01.1 1 3.09 3.09 0 01-.2.8 4.67 4.67 0 01-.5 1c-.2.3-.4.7-.6 1s-.4.5-.5.7c-.6.9-1.5 2-2.5 3.3a23.06 23.06 0 01-3.4 3.6 20.17 20.17 0 01-3.8 2.9 7.33 7.33 0 01-3.8 1.2 4.16 4.16 0 01-3.3-1.3 10.75 10.75 0 01-1.9-3.1 12.36 12.36 0 01-.9-3.9c-.1-1.4-.2-2.6-.2-3.6a17.23 17.23 0 01.5-4.3 32.62 32.62 0 011-4.2 10.86 10.86 0 011.7-3.2 3.9 3.9 0 013.3-1.3c1.1 0 1.6.5 1.6 1.5a10 10 0 01-.2 1.6c-.2.6-.4 1.3-.6 1.9s-.5 1.3-.7 2a18.88 18.88 0 01-.6 1.8 30 30 0 00-.7 6.5zm2.8-25.6a2.5 2.5 0 011.8.8 2.87 2.87 0 01.7 1.8 3.47 3.47 0 01-1 2.5 2.77 2.77 0 01-2.4 1.1 2.14 2.14 0 01-1.7-.8 2.79 2.79 0 01-.6-1.8 4 4 0 01.9-2.5 3 3 0 012.3-1.1z"/><path d="M746.9 60.2a4.79 4.79 0 01-3.3-1.2 9.75 9.75 0 01-2.3-3.2 19 19 0 01-1.5-4.4 41.66 41.66 0 01-.8-4.9c-.2-1.6-.3-3.2-.4-4.6s-.1-2.6-.1-3.5a87.45 87.45 0 011.2-14.4 57.45 57.45 0 014.1-13.8l1.5-3a18.5 18.5 0 012.3-3.4 14.16 14.16 0 012.8-2.7 5.29 5.29 0 013-1.1 3.17 3.17 0 012 .6 4.43 4.43 0 011.2 1.5 11.76 11.76 0 01.7 2 14.92 14.92 0 01.2 2.1 37.64 37.64 0 01-.8 7.1 71 71 0 01-2 7.6c-.8 2.5-1.8 5-2.8 7.4s-2.1 4.5-3.1 6.4c-.5.9-1.1 1.8-1.6 2.7s-1.1 1.7-1.7 2.7c-.2.3-.4.6-.7 1a3.09 3.09 0 00-.5 1 6.05 6.05 0 00-.2 1.5v1.6c0 .7 0 1.7.1 2.9a22.54 22.54 0 00.6 3.6 12.57 12.57 0 001.3 3.1 2.56 2.56 0 002.3 1.3 5.38 5.38 0 002.7-.9 14.87 14.87 0 002.8-2.3 21.8 21.8 0 002.5-2.8 15.12 15.12 0 001.8-2.5l1.8-2.8a4.35 4.35 0 01.6-.7 1.22 1.22 0 01.9-.3.81.81 0 01.8.4 2.39 2.39 0 01.2.9 2.66 2.66 0 01-.3 1.2 7.46 7.46 0 01-.7 1.2l-.1.1c-.7 1.1-1.6 2.4-2.6 3.9a27.86 27.86 0 01-3.5 4.2 24.72 24.72 0 01-4.1 3.3 9.6 9.6 0 01-4.3 1.2zm6.6-57a2.73 2.73 0 00-2 1.1 11.4 11.4 0 00-1.7 2.7 17.55 17.55 0 00-1.2 3.2c-.3 1.1-.6 1.9-.8 2.6q-1.5 4.95-2.7 10.5a48.34 48.34 0 00-1.2 10.5v1a3.75 3.75 0 00.1 1q1.65-2.85 3.6-6.6c1.3-2.5 2.4-5.1 3.5-7.8a84.5 84.5 0 002.6-8.1 28.94 28.94 0 001-7.3v-.6a2.77 2.77 0 00-.1-.9 4.88 4.88 0 00-.3-.7c-.3-.4-.5-.6-.8-.6z"/><path d="M766.3 86.1a4.53 4.53 0 01-2.7-.7 5.81 5.81 0 01-1.8-1.7 6.43 6.43 0 01-1-2.4 12.41 12.41 0 01-.3-2.7 14.8 14.8 0 011.8-6.9 28 28 0 014.6-6.4 52.09 52.09 0 015.9-5.6c2.1-1.7 4.1-3.1 5.9-4.3 0-.6.1-1.3.1-1.9v-2c0-3.6-.1-7.1-.2-10.7a27.4 27.4 0 01-2.8 3.8c-1.3 1.5-2.8 3.2-4.3 4.7a52.9 52.9 0 01-4.7 4 8 8 0 01-4.1 1.7 3.56 3.56 0 01-1.9-.5 2.76 2.76 0 01-1.1-1.3 4.78 4.78 0 01-.6-1.8 12.75 12.75 0 01-.1-1.9 27 27 0 01.7-6.3 62.85 62.85 0 011.7-6.2c.1-.5.3-.9.4-1.4a6.94 6.94 0 01.5-1.3 5 5 0 011-1.4 2.11 2.11 0 011.6-.6 3.23 3.23 0 012.1.8 2.66 2.66 0 01.9 2 4.83 4.83 0 01-.6 2.1c-.4.8-.7 1.5-.9 2s-.5 1.4-.9 2.4-.7 2-1 3-.6 2.1-.8 3a12.91 12.91 0 00-.3 2.4 3.44 3.44 0 00.1.9.58.58 0 00.6.6 2.5 2.5 0 001.1-.5 13.44 13.44 0 001.4-1.1c.5-.4.9-.8 1.4-1.2l.9-.9a59.88 59.88 0 005.2-6.1c1.6-2.1 3.2-4.3 4.9-6.4a12 12 0 011.1-1.2 1.75 1.75 0 011.4-.7 2.65 2.65 0 011.4.5 2.21 2.21 0 01.7 1.3 7.8 7.8 0 01.3 2.2 19.27 19.27 0 01.1 2.4v1.8c0 3.1-.1 6.3-.2 9.6a81.12 81.12 0 01-.9 9.8 71.33 71.33 0 01-2.1 9.4 33.07 33.07 0 01-4 8.5 22.64 22.64 0 01-2 2.6 17.94 17.94 0 01-2.5 2.3 15.57 15.57 0 01-2.8 1.6 7.41 7.41 0 01-3.2.7zm11.9-27.6c-1.5 1.2-3.1 2.5-4.8 4a54.36 54.36 0 00-4.8 4.8 27.91 27.91 0 00-3.7 5.5 12.71 12.71 0 00-1.5 6 7.08 7.08 0 00.1 1.4 8.33 8.33 0 00.4 1.5 4.44 4.44 0 00.8 1.1 1.84 1.84 0 001.3.4 2.93 2.93 0 001.6-.4 13 13 0 001.5-1 8.64 8.64 0 001.3-1.4 13.44 13.44 0 001.1-1.4 25.54 25.54 0 002.5-4.4c.7-1.7 1.3-3.5 1.9-5.4s1-3.8 1.3-5.6a21.73 21.73 0 001-5.1zM824 31.8c1.2.3 2.8.7 4.6 1.3a34.86 34.86 0 015.3 2.2 18.47 18.47 0 014.4 3.2 6 6 0 011.8 4.3 7.6 7.6 0 01-1.4 4.3 15.68 15.68 0 01-3.6 3.7 24.27 24.27 0 01-5 2.9 35.16 35.16 0 01-5.6 2.1 39.62 39.62 0 01-5.5 1.3 29.05 29.05 0 01-4.6.5 10.19 10.19 0 01-.8 1.5 2 2 0 01-.8.8 1.69 1.69 0 01-1 .3c-.4 0-.9.1-1.6.1a9.32 9.32 0 01-1.4-.2q-.9-.15-.9-.9a28.1 28.1 0 01.1-2.9l.3-3c.2-2.9.5-5.7.8-8.5.6-5 1.2-9.9 2-14.8s1.7-9.8 2.8-14.6c-1.1.1-2.1.2-3.1.2l-3 .3a4.25 4.25 0 00-1.1.2 3.75 3.75 0 01-1.1.1c-.7 0-1-.3-1-.9a1 1 0 01.4-.9 4.05 4.05 0 01.9-.5 3.19 3.19 0 011.4-.3c1.2-.2 2.4-.3 3.6-.5s2.5-.3 3.7-.3l1.2-4.8a5.45 5.45 0 013.3-3.5 6.16 6.16 0 012.6-.6 2 2 0 01.7.1.47.47 0 01.5.5 1.09 1.09 0 01-.1.5 17.93 17.93 0 00-1.1 3.7c-.3 1.4-.5 2.7-.7 3.8.7 0 1.7 0 2.9.1a30.23 30.23 0 014 .3 31.76 31.76 0 014.3.6 26.64 26.64 0 013.9 1.1 10.24 10.24 0 012.9 1.8 3.14 3.14 0 011.1 2.6 5.41 5.41 0 01-.9 2.8 13.79 13.79 0 01-2.3 2.7 21.27 21.27 0 01-3.2 2.6c-1.2.8-2.3 1.5-3.5 2.2s-2.4 1.2-3.5 1.7c-1 .3-1.9.6-2.7.8zm-6.9 1.6c-.5 2.9-.9 5.8-1.4 8.8a52.21 52.21 0 00-.7 8.8v1.4a5.7 5.7 0 00.1 1.3 16.82 16.82 0 003.2-.5c1.3-.3 2.8-.6 4.3-1s3.1-.9 4.7-1.5a34.62 34.62 0 004.3-1.9 13.39 13.39 0 003.2-2.4 4.13 4.13 0 001.2-2.8 4.72 4.72 0 00-1-3 13.11 13.11 0 00-2.7-2.5 32 32 0 00-3.7-1.9c-1.4-.5-2.8-1-4.2-1.4s-2.7-.7-4-1c-1.4-.1-2.4-.3-3.3-.4zm19-13.7a2.12 2.12 0 00-1-1.8 7.28 7.28 0 00-2.5-1.2 26.62 26.62 0 00-3.3-.8c-1.2-.2-2.4-.4-3.6-.5s-2.2-.2-3.2-.2-1.7-.1-2.2-.1c-.5 2.5-1 5-1.4 7.5l-1.2 7.5c1.1-.3 2.7-.7 4.7-1.3a50.51 50.51 0 006.1-2.3 24.64 24.64 0 005.3-3.1 4.52 4.52 0 002.3-3.7zM845.3 49.6a21 21 0 01.9-5.8 26.26 26.26 0 012.5-6 18.51 18.51 0 014.1-4.7 8.37 8.37 0 015.5-1.9 5.27 5.27 0 013.2.9 7.4 7.4 0 012 2.3 9.64 9.64 0 011 3 18.41 18.41 0 01.3 3.3 23.83 23.83 0 01-.4 4.6 25.42 25.42 0 01-1.3 4.5 19.79 19.79 0 01-2.3 4 14.84 14.84 0 01-3.4 3.2 15.76 15.76 0 01-2.6 1.3 9.18 9.18 0 01-2.8.5 5.71 5.71 0 01-3.2-.9 6 6 0 01-2-2.2 9.77 9.77 0 01-1.1-3 11 11 0 01-.4-3.1zm13-13.8a4.4 4.4 0 00-3.4 1.6 14.74 14.74 0 00-2.5 3.8 19 19 0 00-1.5 4.6 23 23 0 00-.5 3.9 10.87 10.87 0 00.1 1.8 7.76 7.76 0 00.5 1.8 3.81 3.81 0 001.1 1.4 2.52 2.52 0 001.7.6 3.29 3.29 0 001.7-.4l1.5-.9a11 11 0 002.3-2.5 14 14 0 001.5-3 20.25 20.25 0 00.9-3.3 18.41 18.41 0 00.3-3.3 12.75 12.75 0 00-.1-1.9 6.64 6.64 0 00-.6-2 4.57 4.57 0 00-1.1-1.6 3.29 3.29 0 00-1.9-.6zM880.2 34.8c.6 1.3 1.2 2.7 1.9 4s1.5 2.7 2.1 4.1a24.65 24.65 0 011.7 4.2 13.08 13.08 0 01.7 4.4 9.47 9.47 0 01-.4 2.8 12.27 12.27 0 01-1.2 2.6 6.21 6.21 0 002.9-1.1 40.13 40.13 0 003.4-2.7 31.93 31.93 0 003.1-3.3q1.35-1.65 2.1-2.7a7 7 0 01.8-1 1.39 1.39 0 011-.5c.4 0 .7.1.8.4a3 3 0 01.2 1 1.85 1.85 0 01-.2.7 5.74 5.74 0 00-.4.7 49.16 49.16 0 01-4.1 5.5 22.69 22.69 0 01-4.7 4.1 21.76 21.76 0 01-5.6 2.5 24.32 24.32 0 01-6.8.9 22.21 22.21 0 01-4.3-.4 7.24 7.24 0 01-3.8-1.9c-.2-.2-.4-.5-.6-.7a1.88 1.88 0 01-.2-.8c0-.7.4-1 1.1-1a1.61 1.61 0 01.9.3c.3.2.4.3.3.2a5.44 5.44 0 002.3 1.1 11 11 0 002.6.2 5.42 5.42 0 004.2-1.7 6.73 6.73 0 001.4-4.3 14 14 0 00-.5-3.4c-.3-1.2-.7-2.4-1.1-3.6a37.27 37.27 0 00-1.6-3.5 24.77 24.77 0 00-1.7-2.9 32.13 32.13 0 01-1.2 3.1c-.5 1.1-1 2.3-1.6 3.4a33.71 33.71 0 01-1.9 3.2c-.7 1-1.4 1.9-2 2.6a5.72 5.72 0 01-.8.7 1.28 1.28 0 01-1 .4.9.9 0 01-1-1 3 3 0 01.2-1 5.55 5.55 0 01.6-.8 42.06 42.06 0 007.1-13.2 11.48 11.48 0 01-.6-3.7 11.21 11.21 0 01.3-2.4 11.66 11.66 0 011-2.6 6.52 6.52 0 011.6-2.1 3.1 3.1 0 012.2-.9 1.5 1.5 0 011.1.4 3.59 3.59 0 01.7 1 2.66 2.66 0 01.3 1.2c0 .4.1.8.1 1.2a14.08 14.08 0 01-.5 3.5c-.2.6-.5 1.7-.9 2.8z"/><path d="M903.4 47.6c-.1.7-.3 1.6-.4 2.7s-.3 2.3-.4 3.6l-.3 3.9c-.1 1.3-.1 2.6-.1 3.7v1a3 3 0 01-.2 1 1.56 1.56 0 01-.6.8 1.69 1.69 0 01-1 .3 1.49 1.49 0 01-1.3-.6 2.92 2.92 0 01-.5-1.4 45.14 45.14 0 01-.6-5.8c0-2.2-.1-4.5-.1-6.8 0-4.2.2-8.5.6-12.7s.9-8.4 1.5-12.6c.5-3.1 1-6.3 1.6-9.4a78.86 78.86 0 012.3-9.3 11.79 11.79 0 011.9-3.7 4.44 4.44 0 013.7-1.6c1.2 0 1.7.6 1.7 1.9a7.72 7.72 0 01-.2 1.5 8.8 8.8 0 01-.5 1.5 38.13 38.13 0 00-1.4 4.4c-.4 1.6-.9 3.7-1.6 6.2-.9 4-1.7 7.9-2.5 11.9s-1.3 8-1.8 12c2-2.1 4.1-4.2 6.2-6.1s4.2-3.9 6.4-6c.3-.3.7-.6 1.1-1a2 2 0 011.4-.6 1.39 1.39 0 011 .5 1.61 1.61 0 01.5 1.1 1.75 1.75 0 01-.7 1.4 12 12 0 01-1.2 1.1c-2.4 1.9-4.7 3.9-7 6s-4.5 4.2-6.7 6.3l2.7 1.2c.9.5 1.7.9 2.6 1.5 1.4.8 2.8 1.6 4.3 2.4s2.8 1.7 4.1 2.6a9.6 9.6 0 011.5 1.4 2.41 2.41 0 01.7 1.8.79.79 0 01-.5.8 3 3 0 01-1 .2 4.25 4.25 0 01-1.1-.2 9.74 9.74 0 01-1.1-.5l-9.3-4.9a17.38 17.38 0 00-1.9-1 10.18 10.18 0 01-1.8-.5zM956.3 46.2a2.92 2.92 0 01-.6 1.5 15.14 15.14 0 00-.9 1.4 26.12 26.12 0 01-2.4 3 30.84 30.84 0 01-3 3.3 17.66 17.66 0 01-3.5 2.6 7 7 0 01-3.6 1 3.16 3.16 0 01-2.7-1.2 7.3 7.3 0 01-1.5-2.9 21.69 21.69 0 01-.7-3.5c-.1-1.2-.2-2.2-.2-3-.5.7-1.1 1.6-1.8 2.6a31.51 31.51 0 01-2.4 3 20.51 20.51 0 01-2.7 2.5 4.58 4.58 0 01-2.8 1 3.23 3.23 0 01-2.1-.8 4.31 4.31 0 01-1.3-1.9 8.44 8.44 0 01-.6-2.4 19.88 19.88 0 01-.2-2.2 17.23 17.23 0 011.3-6.2 27.22 27.22 0 013.5-6.5 22.56 22.56 0 015-5.2 9.68 9.68 0 015.9-2.1 2.08 2.08 0 011.5.7 2.06 2.06 0 01.8 1.5.76.76 0 01-.2.5 2.19 2.19 0 01-.5.3c-1.2.7-2.4 1.5-3.6 2.3a20.71 20.71 0 00-3.2 2.8 22.22 22.22 0 00-4.3 6.2 16.69 16.69 0 00-1.6 7.4 3.75 3.75 0 00.1 1 .7.7 0 00.8.6 2.59 2.59 0 001.7-.9 18 18 0 002-2.4 19.48 19.48 0 002-3.2c.7-1.2 1.3-2.3 1.9-3.4s1.1-2.1 1.6-3.1.8-1.6 1-2.1a4.19 4.19 0 01.9-1.4 1.81 1.81 0 011.5-.7 4.25 4.25 0 011.1.2c.3.1.5.4.5.9a6.42 6.42 0 01-.5 2c-.3.8-.6 1.5-.8 2a23.28 23.28 0 00-.8 3.8 25.5 25.5 0 00-.2 3.8v1.7a19.53 19.53 0 00.2 2.3 5.91 5.91 0 00.7 2 1.38 1.38 0 001.3.9 5 5 0 002.7-1.1 17.47 17.47 0 002.9-2.6 37.36 37.36 0 002.7-3.1c.8-1.1 1.5-1.9 1.9-2.5a3.49 3.49 0 01.6-.9l.6-.6a1 1 0 01.7-.2c1 0 1.3.5 1.3 1.3z"/><path d="M962 60.2a4.79 4.79 0 01-3.3-1.2 9.75 9.75 0 01-2.3-3.2 19 19 0 01-1.5-4.4 41.66 41.66 0 01-.8-4.9c-.2-1.6-.3-3.2-.4-4.6s-.1-2.6-.1-3.5a87.45 87.45 0 011.2-14.4 57.45 57.45 0 014.1-13.8l1.5-3a18.5 18.5 0 012.3-3.4 14.16 14.16 0 012.8-2.7 5.29 5.29 0 013-1.1 3.17 3.17 0 012 .6 4.43 4.43 0 011.2 1.5 11.76 11.76 0 01.7 2 14.92 14.92 0 01.2 2.1 37.64 37.64 0 01-.8 7.1 71 71 0 01-2 7.6c-.8 2.5-1.8 5-2.8 7.4s-2.1 4.5-3.1 6.4c-.5.9-1.1 1.8-1.6 2.7s-1.1 1.7-1.7 2.7c-.2.3-.4.6-.7 1a3.09 3.09 0 00-.5 1 6.05 6.05 0 00-.2 1.5v1.6c0 .7 0 1.7.1 2.9a22.54 22.54 0 00.6 3.6 12.57 12.57 0 001.3 3.1 2.56 2.56 0 002.3 1.3 5.38 5.38 0 002.7-.9 14.87 14.87 0 002.8-2.3 21.8 21.8 0 002.5-2.8 15.12 15.12 0 001.8-2.5l1.8-2.8a4.35 4.35 0 01.6-.7 1.22 1.22 0 01.9-.3.81.81 0 01.8.4 2.39 2.39 0 01.2.9 2.66 2.66 0 01-.3 1.2 7.46 7.46 0 01-.7 1.2l-.1.1c-.7 1.1-1.6 2.4-2.6 3.9a27.86 27.86 0 01-3.5 4.2 24.72 24.72 0 01-4.1 3.3 10 10 0 01-4.3 1.2zm6.6-57a2.73 2.73 0 00-2 1.1 11.4 11.4 0 00-1.7 2.7 17.55 17.55 0 00-1.2 3.2c-.3 1.1-.6 1.9-.8 2.6q-1.5 4.95-2.7 10.5a48.34 48.34 0 00-1.2 10.5v1a3.75 3.75 0 00.1 1q1.65-2.85 3.6-6.6c1.3-2.5 2.4-5.1 3.5-7.8a84.5 84.5 0 002.6-8.1 28.94 28.94 0 001-7.3v-.6a2.77 2.77 0 00-.1-.9 4.88 4.88 0 00-.3-.7c-.3-.4-.5-.6-.8-.6z"/><path d="M980 49.2v1.7a7.61 7.61 0 00.3 2.1 7.51 7.51 0 00.7 1.8 1.6 1.6 0 001.4.8 4.85 4.85 0 003-1.3 23.25 23.25 0 003.2-3.1c1-1.2 2-2.4 2.9-3.7s1.6-2.3 2.1-3.2c.2-.3.5-.6.8-1a1.39 1.39 0 011-.5c.5 0 .7.2.8.5a3.4 3.4 0 01.1 1 3.09 3.09 0 01-.2.8 4.67 4.67 0 01-.5 1c-.2.3-.4.7-.6 1s-.4.5-.5.7c-.6.9-1.5 2-2.5 3.3a23.06 23.06 0 01-3.4 3.6 20.17 20.17 0 01-3.8 2.9 7.33 7.33 0 01-3.8 1.2 4.16 4.16 0 01-3.3-1.3 10.75 10.75 0 01-1.9-3.1 12.36 12.36 0 01-.9-3.9c-.1-1.4-.2-2.6-.2-3.6a17.23 17.23 0 01.5-4.3 32.62 32.62 0 011-4.2 10.86 10.86 0 011.7-3.2 3.9 3.9 0 013.3-1.3c1.1 0 1.6.5 1.6 1.5a10 10 0 01-.2 1.6c-.2.6-.4 1.3-.6 1.9s-.5 1.3-.7 2a18.88 18.88 0 01-.6 1.8 30 30 0 00-.7 6.5zm2.8-25.6a2.5 2.5 0 011.8.8 2.87 2.87 0 01.7 1.8 3.47 3.47 0 01-1 2.5 2.77 2.77 0 01-2.4 1.1 2.14 2.14 0 01-1.7-.8 2.79 2.79 0 01-.6-1.8 4 4 0 01.9-2.5 3 3 0 012.3-1.1z"/><path d="M1002.5 34.8c.6 1.3 1.2 2.7 1.9 4s1.5 2.7 2.1 4.1a24.65 24.65 0 011.7 4.2 13.08 13.08 0 01.7 4.4 9.47 9.47 0 01-.4 2.8 12.27 12.27 0 01-1.2 2.6 6.21 6.21 0 002.9-1.1 40.13 40.13 0 003.4-2.7 31.93 31.93 0 003.1-3.3q1.35-1.65 2.1-2.7a7 7 0 01.8-1 1.39 1.39 0 011-.5c.4 0 .7.1.8.4a3 3 0 01.2 1 1.85 1.85 0 01-.2.7 5.74 5.74 0 00-.4.7 49.16 49.16 0 01-4.1 5.5 22.69 22.69 0 01-4.7 4.1 21.76 21.76 0 01-5.6 2.5 24.32 24.32 0 01-6.8.9 22.21 22.21 0 01-4.3-.4 7.24 7.24 0 01-3.8-1.9c-.2-.2-.4-.5-.6-.7a1.88 1.88 0 01-.2-.8c0-.7.4-1 1.1-1a1.61 1.61 0 01.9.3c.3.2.4.3.3.2a5.44 5.44 0 002.3 1.1 11 11 0 002.6.2 5.42 5.42 0 004.2-1.7 6.73 6.73 0 001.4-4.3 14 14 0 00-.5-3.4c-.3-1.2-.7-2.4-1.1-3.6a37.27 37.27 0 00-1.6-3.5 24.77 24.77 0 00-1.7-2.9 32.13 32.13 0 01-1.2 3.1c-.5 1.1-1 2.3-1.6 3.4a33.71 33.71 0 01-1.9 3.2c-.7 1-1.4 1.9-2 2.6a5.72 5.72 0 01-.8.7 1.28 1.28 0 01-1 .4.9.9 0 01-1-1 3 3 0 01.2-1 5.55 5.55 0 01.6-.8 42.06 42.06 0 007.1-13.2 11.48 11.48 0 01-.6-3.7 11.21 11.21 0 01.3-2.4 11.66 11.66 0 011-2.6 6.52 6.52 0 011.6-2.1 3.1 3.1 0 012.2-.9 1.5 1.5 0 011.1.4 3.59 3.59 0 01.7 1 2.66 2.66 0 01.3 1.2c0 .4.1.8.1 1.2a14.08 14.08 0 01-.5 3.5 21.31 21.31 0 01-.9 2.8zM1037.2 60a1.29 1.29 0 01-1.1-.5 2.38 2.38 0 01-.3-1.2 55.12 55.12 0 011.1-10.5c.7-3.6 1.4-7.1 2.1-10.4.2-1.1.4-2.1.6-3.3l.6-3.3a4.6 4.6 0 011.5-2.3 3.64 3.64 0 012.5-1 1.84 1.84 0 011.6.6 2.86 2.86 0 01.5 1.7 13.06 13.06 0 01-.6 3.8q-.6 1.95-1.2 3.6a29.07 29.07 0 00-1.2 3.9c-.3 1.3-.5 2.7-.7 4 1.6-2.3 3.2-4.3 4.7-6.2.6-.8 1.3-1.5 2-2.3s1.3-1.4 2-2a17.91 17.91 0 011.8-1.4 2.52 2.52 0 011.6-.5 2 2 0 011.6.7 4.17 4.17 0 01.9 1.6 11.8 11.8 0 01.4 2 13.43 13.43 0 01.1 1.9.55.55 0 01-.3.5v11.1a6.75 6.75 0 00.2 1.4 1.83 1.83 0 00.7 1 1.7 1.7 0 001.3.4 4.73 4.73 0 002.8-1.1 13.26 13.26 0 002.7-2.6 18.6 18.6 0 002.3-3.2c.7-1.1 1.2-2 1.7-2.8a6.07 6.07 0 01.7-1 1.22 1.22 0 011-.6 1.05 1.05 0 01.9.5 1.61 1.61 0 01.3.9 2.54 2.54 0 01-.2.7 4.88 4.88 0 01-.3.7 18.36 18.36 0 01-2.2 3.6 19.57 19.57 0 01-3.3 3.8 18.46 18.46 0 01-3.9 3 8 8 0 01-4 1.2 4.24 4.24 0 01-2.6-.8 5.26 5.26 0 01-1.6-2 7.13 7.13 0 01-.7-2.6 26.45 26.45 0 01-.2-2.7v-1l.3-7.9a2.49 2.49 0 00-.1-.8c-.1-.4-.2-.6-.5-.6a1.2 1.2 0 00-.8.4c-.3.3-.6.5-.8.7a26 26 0 00-3.3 3.9c-1 1.5-1.9 2.9-2.8 4.2-1 1.6-1.9 3.3-2.8 5s-1.6 3.4-2.4 5.2a5.83 5.83 0 01-1.1 1.5 1.47 1.47 0 01-1.5 1.1z"/><path d="M1075.2 58.4a7.24 7.24 0 01-3.5-.8 6.11 6.11 0 01-2.4-2.1 7.41 7.41 0 01-1.3-3 13.7 13.7 0 01-.4-3.6 22.16 22.16 0 01.9-5.7 29.64 29.64 0 012.6-6.4 17.57 17.57 0 014-5.2 7.28 7.28 0 015.1-2.1 3.7 3.7 0 012.9 1.2 4.36 4.36 0 011 3 9.28 9.28 0 01-1.1 3.9 20.71 20.71 0 01-2.7 4.1 28.91 28.91 0 01-3.5 3.5 12 12 0 01-3.5 2.1 15.87 15.87 0 00-.3 2.9 5.82 5.82 0 001 3.7 4.1 4.1 0 003.5 1.4 9.9 9.9 0 004.2-.9 16.54 16.54 0 003.6-2.2 17.67 17.67 0 003-3.1 36.41 36.41 0 002.4-3.5 8.34 8.34 0 01.8-1.2 1.43 1.43 0 011.2-.6 1.85 1.85 0 01.7.2.6.6 0 01.3.6 3.42 3.42 0 01-.1 1.1 9.25 9.25 0 01-.5 1 28.27 28.27 0 01-3.2 4.5 30 30 0 01-4.2 3.8 23 23 0 01-4.9 2.6 27 27 0 01-5.6.8zm4.5-25.7q-1 0-2.1 1.5a19 19 0 00-1.9 3.5 31.21 31.21 0 00-1.5 3.9 28.26 28.26 0 00-.8 2.9l2.4-1.8a12 12 0 002.4-2.6 18.08 18.08 0 001.9-2.9 6.34 6.34 0 00.8-2.9 4.25 4.25 0 00-.2-1.1 1.1 1.1 0 00-1-.5z"/><path d="M1125 41.1q0 2.1-.3 5.4a35.28 35.28 0 01-1.3 6.3 14.44 14.44 0 01-2.8 5.2 5.73 5.73 0 01-4.7 2.2 5.45 5.45 0 01-2.2-.5 6.22 6.22 0 01-1.9-1.4 6.84 6.84 0 01-1.5-2.7 22.23 22.23 0 01-1-3.9 29 29 0 01-.6-4.1c-.1-1.3-.2-2.4-.3-3.2-1.9 2.4-3.8 4.5-5.6 6.4a27.15 27.15 0 01-2.4 2.4c-.9.8-1.6 1.5-2.4 2.1a21.65 21.65 0 01-2.2 1.5 4.13 4.13 0 01-1.9.6 2.81 2.81 0 01-2-.6 3.27 3.27 0 01-1.1-1.5 6.53 6.53 0 01-.5-2 14.77 14.77 0 01-.1-2.1 23 23 0 01.5-3.9c.3-1.6.8-3.3 1.3-5s1.1-3.3 1.7-4.8a16 16 0 011.8-3.5 3 3 0 011.4-1.1 5.08 5.08 0 011.7-.3 4 4 0 011.5.3 1.13 1.13 0 01.7 1.2 1.85 1.85 0 01-.2.7c-.1.2-.2.5-.3.7a31.71 31.71 0 00-1.7 3.7 31.21 31.21 0 00-1.5 4.3 35.37 35.37 0 00-1.1 4.4 20.28 20.28 0 00-.4 4.1v.6c0 .3.1.4.4.4a2.24 2.24 0 001-.3 4.44 4.44 0 001.1-.8 10 10 0 001.1-1l.8-.8a57.32 57.32 0 006.6-8c.4-.6.8-1.3 1.2-2a14 14 0 011.2-1.8 2.1 2.1 0 011.1-.8 7.08 7.08 0 011.4-.1c.9 0 1.5.3 1.7 1a7.61 7.61 0 01.3 2.1 18.15 18.15 0 00.1 2c.1.9.2 2 .3 3.2a22.54 22.54 0 00.6 3.6 28.4 28.4 0 00.8 3.4 12.85 12.85 0 001 2.6c.4.7.8 1 1.2 1 .9 0 1.7-.6 2.3-1.9a24.06 24.06 0 001.5-4.3 40.48 40.48 0 00.9-4.8 31 31 0 00.3-3.4v-1a6.15 6.15 0 00-.1-1.3 4.3 4.3 0 00-.2-1.2 5.07 5.07 0 01-.2-.9 4.82 4.82 0 00-.8-1.2c-.3-.3-.4-.7-.4-1.5a2 2 0 01.4-1.3 1.43 1.43 0 011.2-.6 1.58 1.58 0 011.5 1 8.47 8.47 0 01.8 2.4 12.41 12.41 0 01.3 2.7zM1140.2 34.8c.6 1.3 1.2 2.7 1.9 4s1.5 2.7 2.1 4.1a24.65 24.65 0 011.7 4.2 13.08 13.08 0 01.7 4.4 9.47 9.47 0 01-.4 2.8 12.27 12.27 0 01-1.2 2.6 6.21 6.21 0 002.9-1.1 40.13 40.13 0 003.4-2.7 31.93 31.93 0 003.1-3.3q1.35-1.65 2.1-2.7a7 7 0 01.8-1 1.39 1.39 0 011-.5c.4 0 .7.1.8.4a3 3 0 01.2 1 1.85 1.85 0 01-.2.7 5.74 5.74 0 00-.4.7 49.16 49.16 0 01-4.1 5.5 22.69 22.69 0 01-4.7 4.1 21.76 21.76 0 01-5.6 2.5 24.32 24.32 0 01-6.8.9 22.21 22.21 0 01-4.3-.4 7.24 7.24 0 01-3.8-1.9c-.2-.2-.4-.5-.6-.7a1.88 1.88 0 01-.2-.8c0-.7.4-1 1.1-1a1.61 1.61 0 01.9.3c.3.2.4.3.3.2a5.44 5.44 0 002.3 1.1 11 11 0 002.6.2 5.42 5.42 0 004.2-1.7 6.73 6.73 0 001.4-4.3 14 14 0 00-.5-3.4c-.3-1.2-.7-2.4-1.1-3.6a37.27 37.27 0 00-1.6-3.5 24.77 24.77 0 00-1.7-2.9 32.13 32.13 0 01-1.2 3.1c-.5 1.1-1 2.3-1.6 3.4a33.71 33.71 0 01-1.9 3.2c-.7 1-1.4 1.9-2 2.6a5.72 5.72 0 01-.8.7 1.28 1.28 0 01-1 .4.9.9 0 01-1-1 3 3 0 01.2-1 5.55 5.55 0 01.6-.8 42.06 42.06 0 007.1-13.2 11.48 11.48 0 01-.6-3.7 11.21 11.21 0 01.3-2.4 11.66 11.66 0 011-2.6 6.52 6.52 0 011.6-2.1 3.1 3.1 0 012.2-.9 1.5 1.5 0 011.1.4 3.59 3.59 0 01.7 1 2.66 2.66 0 01.3 1.2c0 .4.1.8.1 1.2a14.08 14.08 0 01-.5 3.5 12.41 12.41 0 01-.9 2.8z"/></g></g></g></svg>
